<svg width="113" height="43" viewBox="0 0 113 43" fill="none" xmlns="http://www.w3.org/2000/svg">
<rect x="0.316406" width="112.683" height="42.2561" rx="4" fill="#264DE4"/>
<path d="M61.9987 26.4486C61.0507 26.4486 60.3247 26.1786 59.8207 25.6386C59.3287 25.0986 59.0827 24.3366 59.0827 23.3526V16.5846C59.0827 15.6006 59.3287 14.8386 59.8207 14.2986C60.3247 13.7586 61.0507 13.4886 61.9987 13.4886C62.9467 13.4886 63.6667 13.7586 64.1587 14.2986C64.6627 14.8386 64.9147 15.6006 64.9147 16.5846V17.9166H63.0427V16.4586C63.0427 15.6786 62.7127 15.2886 62.0527 15.2886C61.3927 15.2886 61.0627 15.6786 61.0627 16.4586V23.4966C61.0627 24.2646 61.3927 24.6486 62.0527 24.6486C62.7127 24.6486 63.0427 24.2646 63.0427 23.4966V21.5706H64.9147V23.3526C64.9147 24.3366 64.6627 25.0986 64.1587 25.6386C63.6667 26.1786 62.9467 26.4486 61.9987 26.4486ZM68.7085 26.4486C67.7485 26.4486 67.0225 26.1786 66.5305 25.6386C66.0385 25.0866 65.7925 24.3006 65.7925 23.2806V22.5606H67.6645V23.4246C67.6645 24.2406 68.0065 24.6486 68.6905 24.6486C69.0265 24.6486 69.2785 24.5526 69.4465 24.3606C69.6265 24.1566 69.7165 23.8326 69.7165 23.3886C69.7165 22.8606 69.5965 22.3986 69.3565 22.0026C69.1165 21.5946 68.6725 21.1086 68.0245 20.5446C67.2085 19.8246 66.6385 19.1766 66.3145 18.6006C65.9905 18.0126 65.8285 17.3526 65.8285 16.6206C65.8285 15.6246 66.0805 14.8566 66.5845 14.3166C67.0885 13.7646 67.8205 13.4886 68.7805 13.4886C69.7285 13.4886 70.4425 13.7646 70.9225 14.3166C71.4145 14.8566 71.6605 15.6366 71.6605 16.6566V17.1786H69.7885V16.5306C69.7885 16.0986 69.7045 15.7866 69.5365 15.5946C69.3685 15.3906 69.1225 15.2886 68.7985 15.2886C68.1385 15.2886 67.8085 15.6906 67.8085 16.4946C67.8085 16.9506 67.9285 17.3766 68.1685 17.7726C68.4205 18.1686 68.8705 18.6486 69.5185 19.2126C70.3465 19.9326 70.9165 20.5866 71.2285 21.1746C71.5405 21.7626 71.6965 22.4526 71.6965 23.2446C71.6965 24.2766 71.4385 25.0686 70.9225 25.6206C70.4185 26.1726 69.6805 26.4486 68.7085 26.4486ZM75.4058 26.4486C74.4458 26.4486 73.7198 26.1786 73.2278 25.6386C72.7358 25.0866 72.4898 24.3006 72.4898 23.2806V22.5606H74.3618V23.4246C74.3618 24.2406 74.7038 24.6486 75.3878 24.6486C75.7238 24.6486 75.9758 24.5526 76.1438 24.3606C76.3238 24.1566 76.4138 23.8326 76.4138 23.3886C76.4138 22.8606 76.2938 22.3986 76.0538 22.0026C75.8138 21.5946 75.3698 21.1086 74.7218 20.5446C73.9058 19.8246 73.3358 19.1766 73.0118 18.6006C72.6878 18.0126 72.5258 17.3526 72.5258 16.6206C72.5258 15.6246 72.7778 14.8566 73.2818 14.3166C73.7858 13.7646 74.5178 13.4886 75.4778 13.4886C76.4258 13.4886 77.1398 13.7646 77.6198 14.3166C78.1118 14.8566 78.3578 15.6366 78.3578 16.6566V17.1786H76.4858V16.5306C76.4858 16.0986 76.4018 15.7866 76.2338 15.5946C76.0658 15.3906 75.8198 15.2886 75.4958 15.2886C74.8358 15.2886 74.5058 15.6906 74.5058 16.4946C74.5058 16.9506 74.6258 17.3766 74.8658 17.7726C75.1178 18.1686 75.5678 18.6486 76.2158 19.2126C77.0438 19.9326 77.6138 20.5866 77.9258 21.1746C78.2378 21.7626 78.3938 22.4526 78.3938 23.2446C78.3938 24.2766 78.1358 25.0686 77.6198 25.6206C77.1158 26.1726 76.3778 26.4486 75.4058 26.4486Z" fill="white"/>
<path d="M24.747 11.2676L23.163 29.0131L16.0426 30.9871L8.94176 29.0159L7.35938 11.2676H24.747Z" fill="white"/>
<path d="M21.8044 27.8831L23.1581 12.7188H16.0508V29.4782L21.8044 27.8831Z" fill="white"/>
<path d="M10.9922 19.3018L11.1873 21.4785H16.0584V19.3018H10.9922Z" fill="#264DE4"/>
<path d="M16.052 14.8945H16.0445H10.5938L10.7916 17.0713H16.052V14.8945Z" fill="#264DE4"/>
<path d="M16.0551 27.2202V24.9555L16.0456 24.958L13.6213 24.3034L13.4664 22.5674H12.2884H11.2812L11.5862 25.9852L16.0451 27.223L16.0551 27.2202Z" fill="#264DE4"/>
<path d="M18.7273 21.4771L18.4746 24.3002L16.0469 24.9554V27.2201L20.5093 25.9833L20.5421 25.6155L21.0536 19.8849L21.1067 19.3003L21.4997 14.8945H16.0469V17.0713H19.1141L18.9161 19.3003H16.0469V21.4771H18.7273Z" fill="#264DE4"/>
</svg>
