<svg width="113" height="43" viewBox="0 0 113 43" fill="none" xmlns="http://www.w3.org/2000/svg">
<rect x="0.316406" width="112.683" height="42.2561" rx="4" fill="#264DE4"/>
<path d="M60.8934 27.4786C59.7874 27.4786 58.9404 27.1636 58.3524 26.5336C57.7784 25.9036 57.4914 25.0146 57.4914 23.8666V15.9706C57.4914 14.8226 57.7784 13.9336 58.3524 13.3036C58.9404 12.6736 59.7874 12.3586 60.8934 12.3586C61.9994 12.3586 62.8394 12.6736 63.4134 13.3036C64.0014 13.9336 64.2954 14.8226 64.2954 15.9706V17.5246H62.1114V15.8236C62.1114 14.9136 61.7264 14.4586 60.9564 14.4586C60.1864 14.4586 59.8014 14.9136 59.8014 15.8236V24.0346C59.8014 24.9306 60.1864 25.3786 60.9564 25.3786C61.7264 25.3786 62.1114 24.9306 62.1114 24.0346V21.7876H64.2954V23.8666C64.2954 25.0146 64.0014 25.9036 63.4134 26.5336C62.8394 27.1636 61.9994 27.4786 60.8934 27.4786ZM68.7215 27.4786C67.6015 27.4786 66.7545 27.1636 66.1805 26.5336C65.6065 25.8896 65.3195 24.9726 65.3195 23.7826V22.9426H67.5035V23.9506C67.5035 24.9026 67.9025 25.3786 68.7005 25.3786C69.0925 25.3786 69.3865 25.2666 69.5825 25.0426C69.7925 24.8046 69.8975 24.4266 69.8975 23.9086C69.8975 23.2926 69.7575 22.7536 69.4775 22.2916C69.1975 21.8156 68.6795 21.2486 67.9235 20.5906C66.9715 19.7506 66.3065 18.9946 65.9285 18.3226C65.5505 17.6366 65.3615 16.8666 65.3615 16.0126C65.3615 14.8506 65.6555 13.9546 66.2435 13.3246C66.8315 12.6806 67.6855 12.3586 68.8055 12.3586C69.9115 12.3586 70.7445 12.6806 71.3045 13.3246C71.8785 13.9546 72.1655 14.8646 72.1655 16.0546V16.6636H69.9815V15.9076C69.9815 15.4036 69.8835 15.0396 69.6875 14.8156C69.4915 14.5776 69.2045 14.4586 68.8265 14.4586C68.0565 14.4586 67.6715 14.9276 67.6715 15.8656C67.6715 16.3976 67.8115 16.8946 68.0915 17.3566C68.3855 17.8186 68.9105 18.3786 69.6665 19.0366C70.6325 19.8766 71.2975 20.6396 71.6615 21.3256C72.0255 22.0116 72.2075 22.8166 72.2075 23.7406C72.2075 24.9446 71.9065 25.8686 71.3045 26.5126C70.7165 27.1566 69.8555 27.4786 68.7215 27.4786ZM76.5349 27.4786C75.4149 27.4786 74.5679 27.1636 73.9939 26.5336C73.4199 25.8896 73.1329 24.9726 73.1329 23.7826V22.9426H75.3169V23.9506C75.3169 24.9026 75.7159 25.3786 76.5139 25.3786C76.9059 25.3786 77.1999 25.2666 77.3959 25.0426C77.6059 24.8046 77.7109 24.4266 77.7109 23.9086C77.7109 23.2926 77.5709 22.7536 77.2909 22.2916C77.0109 21.8156 76.4929 21.2486 75.7369 20.5906C74.7849 19.7506 74.1199 18.9946 73.7419 18.3226C73.3639 17.6366 73.1749 16.8666 73.1749 16.0126C73.1749 14.8506 73.4689 13.9546 74.0569 13.3246C74.6449 12.6806 75.4989 12.3586 76.6189 12.3586C77.7249 12.3586 78.5579 12.6806 79.1179 13.3246C79.6919 13.9546 79.9789 14.8646 79.9789 16.0546V16.6636H77.7949V15.9076C77.7949 15.4036 77.6969 15.0396 77.5009 14.8156C77.3049 14.5776 77.0179 14.4586 76.6399 14.4586C75.8699 14.4586 75.4849 14.9276 75.4849 15.8656C75.4849 16.3976 75.6249 16.8946 75.9049 17.3566C76.1989 17.8186 76.7239 18.3786 77.4799 19.0366C78.4459 19.8766 79.1109 20.6396 79.4749 21.3256C79.8389 22.0116 80.0209 22.8166 80.0209 23.7406C80.0209 24.9446 79.7199 25.8686 79.1179 26.5126C78.5299 27.1566 77.6689 27.4786 76.5349 27.4786Z" fill="white"/>
<path d="M24.747 11.2676L23.163 29.0131L16.0426 30.9871L8.94176 29.0159L7.35938 11.2676H24.747Z" fill="white"/>
<path d="M21.8044 27.8831L23.1581 12.7188H16.0508V29.4782L21.8044 27.8831Z" fill="white"/>
<path d="M10.9922 19.3018L11.1873 21.4785H16.0584V19.3018H10.9922Z" fill="#264DE4"/>
<path d="M16.052 14.8945H16.0445H10.5938L10.7916 17.0713H16.052V14.8945Z" fill="#264DE4"/>
<path d="M16.0551 27.2202V24.9555L16.0456 24.958L13.6213 24.3034L13.4664 22.5674H12.2884H11.2812L11.5862 25.9852L16.0451 27.223L16.0551 27.2202Z" fill="#264DE4"/>
<path d="M18.7273 21.4771L18.4746 24.3002L16.0469 24.9554V27.2201L20.5093 25.9833L20.5421 25.6155L21.0536 19.8849L21.1067 19.3003L21.4997 14.8945H16.0469V17.0713H19.1141L18.9161 19.3003H16.0469V21.4771H18.7273Z" fill="#264DE4"/>
</svg>
