<svg width="113" height="43" viewBox="0 0 113 43" fill="none" xmlns="http://www.w3.org/2000/svg">
<rect width="112.683" height="42.2561" rx="4" fill="#E34F26"/>
<path d="M8.5804 28.5241L7.04297 11.2676H23.9454L22.408 28.5148L15.4802 30.4342" fill="white"/>
<path d="M15.5 28.9674V12.6846H22.4091L21.0907 27.4067" fill="white"/>
<path d="M10.1797 14.7939H15.4908V16.9091H12.4998L12.6955 19.0755H15.4908V21.1859H10.7574M10.8506 22.2482H12.975L13.1241 23.9393L15.4908 24.5729V26.7813L11.1487 25.5699" fill="#E34F26"/>
<path d="M20.7784 14.7939H15.4766V16.9091H20.5827M20.3917 19.0755H15.4766V21.1906H18.0855L17.8386 23.9393L15.4766 24.5729V26.7719L19.8093 25.5699" fill="#E34F26"/>
<path d="M54.0584 13.6686H56.0384V18.7986H58.1624V13.6686H60.1424V26.2686H58.1624V20.5986H56.0384V26.2686H54.0584V13.6686ZM63.165 15.4686H61.095V13.6686H67.215V15.4686H65.145V26.2686H63.165V15.4686ZM68.1736 13.6686H70.9996L72.2596 22.6866H72.2956L73.5556 13.6686H76.3816V26.2686H74.5096V16.7286H74.4736L73.0336 26.2686H71.3776L69.9376 16.7286H69.9016V26.2686H68.1736V13.6686ZM77.8591 13.6686H79.8391V24.4686H83.0971V26.2686H77.8591V13.6686Z" fill="white"/>
</svg>
