<svg width="113" height="43" viewBox="0 0 113 43" fill="none" xmlns="http://www.w3.org/2000/svg">
<rect width="112.683" height="42.2561" rx="4" fill="#E34F26"/>
<path d="M8.5804 28.5241L7.04297 11.2676H23.9454L22.408 28.5148L15.4802 30.4342" fill="white"/>
<path d="M15.5 28.9674V12.6846H22.4091L21.0907 27.4067" fill="white"/>
<path d="M10.1797 14.7939H15.4908V16.9091H12.4998L12.6955 19.0755H15.4908V21.1859H10.7574M10.8506 22.2482H12.975L13.1241 23.9393L15.4908 24.5729V26.7813L11.1487 25.5699" fill="#E34F26"/>
<path d="M20.7784 14.7939H15.4766V16.9091H20.5827M20.3917 19.0755H15.4766V21.1906H18.0855L17.8386 23.9393L15.4766 24.5729V26.7719L19.8093 25.5699" fill="#E34F26"/>
<path d="M51.6823 12.5686H53.9923V18.5536H56.4703V12.5686H58.7803V27.2686H56.4703V20.6536H53.9923V27.2686H51.6823V12.5686ZM62.3067 14.6686H59.8917V12.5686H67.0317V14.6686H64.6167V27.2686H62.3067V14.6686ZM68.1501 12.5686H71.4471L72.9171 23.0896H72.9591L74.4291 12.5686H77.7261V27.2686H75.5421V16.1386H75.5001L73.8201 27.2686H71.8881L70.2081 16.1386H70.1661V27.2686H68.1501V12.5686ZM79.4499 12.5686H81.7599V25.1686H85.5609V27.2686H79.4499V12.5686Z" fill="white"/>
</svg>
