<svg width="113" height="43" viewBox="0 0 113 43" fill="none" xmlns="http://www.w3.org/2000/svg">
<rect y="0.682617" width="112.683" height="42.2561" rx="4" fill="#E9CA32"/>
<path d="M38.1084 27.0232C37.7484 27.0232 37.4424 26.9992 37.1904 26.9512V25.1512C37.3824 25.1992 37.5984 25.2232 37.8384 25.2232C38.2344 25.2232 38.5284 25.1272 38.7204 24.9352C38.9124 24.7312 39.0084 24.4252 39.0084 24.0172V14.3512H40.9884V23.9632C40.9884 24.9952 40.7484 25.7632 40.2684 26.2672C39.8004 26.7712 39.0804 27.0232 38.1084 27.0232ZM43.8989 14.3512H46.5809L48.6329 26.9512H46.6529L46.2929 24.4492V24.4852H44.0429L43.6829 26.9512H41.8469L43.8989 14.3512ZM46.0589 22.7752L45.1769 16.5472H45.1409L44.2769 22.7752H46.0589ZM48.5617 14.3512H50.5597L51.8557 24.1252H51.8917L53.1877 14.3512H55.0057L53.0977 26.9512H50.4697L48.5617 14.3512ZM56.977 14.3512H59.659L61.711 26.9512H59.731L59.371 24.4492V24.4852H57.121L56.761 26.9512H54.925L56.977 14.3512ZM59.137 22.7752L58.255 16.5472H58.219L57.355 22.7752H59.137ZM65.1929 27.1312C64.2329 27.1312 63.5069 26.8612 63.0149 26.3212C62.5229 25.7692 62.2769 24.9832 62.2769 23.9632V23.2432H64.1489V24.1072C64.1489 24.9232 64.4909 25.3312 65.1749 25.3312C65.5109 25.3312 65.7629 25.2352 65.9309 25.0432C66.1109 24.8392 66.2009 24.5152 66.2009 24.0712C66.2009 23.5432 66.0809 23.0812 65.8409 22.6852C65.6009 22.2772 65.1569 21.7912 64.5089 21.2272C63.6929 20.5072 63.1229 19.8592 62.7989 19.2832C62.4749 18.6952 62.3129 18.0352 62.3129 17.3032C62.3129 16.3072 62.5649 15.5392 63.0689 14.9992C63.5729 14.4472 64.3049 14.1712 65.2649 14.1712C66.2129 14.1712 66.9269 14.4472 67.4069 14.9992C67.8989 15.5392 68.1449 16.3192 68.1449 17.3392V17.8612H66.2729V17.2132C66.2729 16.7812 66.1889 16.4692 66.0209 16.2772C65.8529 16.0732 65.6069 15.9712 65.2829 15.9712C64.6229 15.9712 64.2929 16.3732 64.2929 17.1772C64.2929 17.6332 64.4129 18.0592 64.6529 18.4552C64.9049 18.8512 65.3549 19.3312 66.0029 19.8952C66.8309 20.6152 67.4009 21.2692 67.7129 21.8572C68.0249 22.4452 68.1809 23.1352 68.1809 23.9272C68.1809 24.9592 67.9229 25.7512 67.4069 26.3032C66.9029 26.8552 66.1649 27.1312 65.1929 27.1312ZM72.1062 27.1312C71.1582 27.1312 70.4322 26.8612 69.9282 26.3212C69.4362 25.7812 69.1902 25.0192 69.1902 24.0352V17.2672C69.1902 16.2832 69.4362 15.5212 69.9282 14.9812C70.4322 14.4412 71.1582 14.1712 72.1062 14.1712C73.0542 14.1712 73.7742 14.4412 74.2662 14.9812C74.7702 15.5212 75.0222 16.2832 75.0222 17.2672V18.5992H73.1502V17.1412C73.1502 16.3612 72.8202 15.9712 72.1602 15.9712C71.5002 15.9712 71.1702 16.3612 71.1702 17.1412V24.1792C71.1702 24.9472 71.5002 25.3312 72.1602 25.3312C72.8202 25.3312 73.1502 24.9472 73.1502 24.1792V22.2532H75.0222V24.0352C75.0222 25.0192 74.7702 25.7812 74.2662 26.3212C73.7742 26.8612 73.0542 27.1312 72.1062 27.1312ZM76.2068 14.3512H79.1408C80.1608 14.3512 80.9048 14.5912 81.3728 15.0712C81.8408 15.5392 82.0748 16.2652 82.0748 17.2492V18.0232C82.0748 19.3312 81.6428 20.1592 80.7788 20.5072V20.5432C81.2588 20.6872 81.5948 20.9812 81.7868 21.4252C81.9908 21.8692 82.0928 22.4632 82.0928 23.2072V25.4212C82.0928 25.7812 82.1048 26.0752 82.1288 26.3032C82.1528 26.5192 82.2128 26.7352 82.3088 26.9512H80.2928C80.2208 26.7472 80.1728 26.5552 80.1488 26.3752C80.1248 26.1952 80.1128 25.8712 80.1128 25.4032V23.0992C80.1128 22.5232 80.0168 22.1212 79.8248 21.8932C79.6448 21.6652 79.3268 21.5512 78.8708 21.5512H78.1868V26.9512H76.2068V14.3512ZM78.9068 19.7512C79.3028 19.7512 79.5968 19.6492 79.7888 19.4452C79.9928 19.2412 80.0948 18.8992 80.0948 18.4192V17.4472C80.0948 16.9912 80.0108 16.6612 79.8428 16.4572C79.6868 16.2532 79.4348 16.1512 79.0868 16.1512H78.1868V19.7512H78.9068ZM83.4666 14.3512H85.4466V26.9512H83.4666V14.3512ZM86.9295 14.3512H89.8455C90.8295 14.3512 91.5675 14.6152 92.0595 15.1432C92.5515 15.6712 92.7975 16.4452 92.7975 17.4652V18.7072C92.7975 19.7272 92.5515 20.5012 92.0595 21.0292C91.5675 21.5572 90.8295 21.8212 89.8455 21.8212H88.9095V26.9512H86.9295V14.3512ZM89.8455 20.0212C90.1695 20.0212 90.4095 19.9312 90.5655 19.7512C90.7335 19.5712 90.8175 19.2652 90.8175 18.8332V17.3392C90.8175 16.9072 90.7335 16.6012 90.5655 16.4212C90.4095 16.2412 90.1695 16.1512 89.8455 16.1512H88.9095V20.0212H89.8455ZM95.456 16.1512H93.386V14.3512H99.506V16.1512H97.436V26.9512H95.456V16.1512Z" fill="white"/>
<path d="M8.45828 29.0687L7.04297 11.9512L23.9454 11.9856L22.4489 29.0687L15.558 31.0433L8.45828 29.0687Z" fill="white"/>
<path d="M15.5547 29.3898V13.5811L22.5152 13.604L21.274 27.748L15.5547 29.3898Z" fill="white"/>
<path d="M14.8073 15.459H12.9672V25.9809L11.5359 25.7111V24.2947L9.83203 24.0249V27.1949L14.8073 28.4764V15.459ZM16.1878 15.459H21.2821L20.9413 17.4757H18.1325V20.7851H20.9413L20.6005 27.4647L16.1878 28.4764V26.3856L19.1693 25.3738L19.3414 22.6085L16.1878 23.0604V15.459Z" fill="#E9CA32"/>
</svg>
