<svg width="113" height="43" viewBox="0 0 113 43" fill="none" xmlns="http://www.w3.org/2000/svg">
<rect y="0.682617" width="112.683" height="42.2561" rx="4" fill="#E9CA32"/>
<path d="M33.074 28.0352C32.654 28.0352 32.297 28.0072 32.003 27.9512V25.8512C32.227 25.9072 32.479 25.9352 32.759 25.9352C33.221 25.9352 33.564 25.8232 33.788 25.5992C34.012 25.3612 34.124 25.0042 34.124 24.5282V13.2512H36.434V24.4652C36.434 25.6692 36.154 26.5652 35.594 27.1532C35.048 27.7412 34.208 28.0352 33.074 28.0352ZM39.8296 13.2512H42.9586L45.3526 27.9512H43.0426L42.6226 25.0322V25.0742H39.9976L39.5776 27.9512H37.4356L39.8296 13.2512ZM42.3496 23.0792L41.3206 15.8132H41.2786L40.2706 23.0792H42.3496ZM45.2696 13.2512H47.6006L49.1126 24.6542H49.1546L50.6666 13.2512H52.7876L50.5616 27.9512H47.4956L45.2696 13.2512ZM55.0875 13.2512H58.2165L60.6105 27.9512H58.3005L57.8805 25.0322V25.0742H55.2555L54.8355 27.9512H52.6935L55.0875 13.2512ZM57.6075 23.0792L56.5785 15.8132H56.5365L55.5285 23.0792H57.6075ZM64.6726 28.1612C63.5526 28.1612 62.7056 27.8462 62.1316 27.2162C61.5576 26.5722 61.2706 25.6552 61.2706 24.4652V23.6252H63.4546V24.6332C63.4546 25.5852 63.8536 26.0612 64.6516 26.0612C65.0436 26.0612 65.3376 25.9492 65.5336 25.7252C65.7436 25.4872 65.8486 25.1092 65.8486 24.5912C65.8486 23.9752 65.7086 23.4362 65.4286 22.9742C65.1486 22.4982 64.6306 21.9312 63.8746 21.2732C62.9226 20.4332 62.2576 19.6772 61.8796 19.0052C61.5016 18.3192 61.3126 17.5492 61.3126 16.6952C61.3126 15.5332 61.6066 14.6372 62.1946 14.0072C62.7826 13.3632 63.6366 13.0412 64.7566 13.0412C65.8626 13.0412 66.6956 13.3632 67.2556 14.0072C67.8296 14.6372 68.1166 15.5472 68.1166 16.7372V17.3462H65.9326V16.5902C65.9326 16.0862 65.8346 15.7222 65.6386 15.4982C65.4426 15.2602 65.1556 15.1412 64.7776 15.1412C64.0076 15.1412 63.6226 15.6102 63.6226 16.5482C63.6226 17.0802 63.7626 17.5772 64.0426 18.0392C64.3366 18.5012 64.8616 19.0612 65.6176 19.7192C66.5836 20.5592 67.2486 21.3222 67.6126 22.0082C67.9766 22.6942 68.1586 23.4992 68.1586 24.4232C68.1586 25.6272 67.8576 26.5512 67.2556 27.1952C66.6676 27.8392 65.8066 28.1612 64.6726 28.1612ZM72.7381 28.1612C71.6321 28.1612 70.7851 27.8462 70.1971 27.2162C69.6231 26.5862 69.3361 25.6972 69.3361 24.5492V16.6532C69.3361 15.5052 69.6231 14.6162 70.1971 13.9862C70.7851 13.3562 71.6321 13.0412 72.7381 13.0412C73.8441 13.0412 74.6841 13.3562 75.2581 13.9862C75.8461 14.6162 76.1401 15.5052 76.1401 16.6532V18.2072H73.9561V16.5062C73.9561 15.5962 73.5711 15.1412 72.8011 15.1412C72.0311 15.1412 71.6461 15.5962 71.6461 16.5062V24.7172C71.6461 25.6132 72.0311 26.0612 72.8011 26.0612C73.5711 26.0612 73.9561 25.6132 73.9561 24.7172V22.4702H76.1401V24.5492C76.1401 25.6972 75.8461 26.5862 75.2581 27.2162C74.6841 27.8462 73.8441 28.1612 72.7381 28.1612ZM77.5222 13.2512H80.9452C82.1352 13.2512 83.0032 13.5312 83.5492 14.0912C84.0952 14.6372 84.3682 15.4842 84.3682 16.6322V17.5352C84.3682 19.0612 83.8642 20.0272 82.8562 20.4332V20.4752C83.4162 20.6432 83.8082 20.9862 84.0322 21.5042C84.2702 22.0222 84.3892 22.7152 84.3892 23.5832V26.1662C84.3892 26.5862 84.4032 26.9292 84.4312 27.1952C84.4592 27.4472 84.5292 27.6992 84.6412 27.9512H82.2892C82.2052 27.7132 82.1492 27.4892 82.1212 27.2792C82.0932 27.0692 82.0792 26.6912 82.0792 26.1452V23.4572C82.0792 22.7852 81.9672 22.3162 81.7432 22.0502C81.5332 21.7842 81.1622 21.6512 80.6302 21.6512H79.8322V27.9512H77.5222V13.2512ZM80.6722 19.5512C81.1342 19.5512 81.4772 19.4322 81.7012 19.1942C81.9392 18.9562 82.0582 18.5572 82.0582 17.9972V16.8632C82.0582 16.3312 81.9602 15.9462 81.7642 15.7082C81.5822 15.4702 81.2882 15.3512 80.8822 15.3512H79.8322V19.5512H80.6722ZM85.9919 13.2512H88.3019V27.9512H85.9919V13.2512ZM90.0319 13.2512H93.4339C94.5819 13.2512 95.4429 13.5592 96.0169 14.1752C96.5909 14.7912 96.8779 15.6942 96.8779 16.8842V18.3332C96.8779 19.5232 96.5909 20.4262 96.0169 21.0422C95.4429 21.6582 94.5819 21.9662 93.4339 21.9662H92.3419V27.9512H90.0319V13.2512ZM93.4339 19.8662C93.8119 19.8662 94.0919 19.7612 94.2739 19.5512C94.4699 19.3412 94.5679 18.9842 94.5679 18.4802V16.7372C94.5679 16.2332 94.4699 15.8762 94.2739 15.6662C94.0919 15.4562 93.8119 15.3512 93.4339 15.3512H92.3419V19.8662H93.4339ZM99.9795 15.3512H97.5645V13.2512H104.705V15.3512H102.29V27.9512H99.9795V15.3512Z" fill="white"/>
<path d="M8.45828 29.0687L7.04297 11.9512L23.9454 11.9856L22.4489 29.0687L15.558 31.0433L8.45828 29.0687Z" fill="white"/>
<path d="M15.5547 29.3898V13.5811L22.5152 13.604L21.274 27.748L15.5547 29.3898Z" fill="white"/>
<path d="M14.8073 15.459H12.9672V25.9809L11.5359 25.7111V24.2947L9.83203 24.0249V27.1949L14.8073 28.4764V15.459ZM16.1878 15.459H21.2821L20.9413 17.4757H18.1325V20.7851H20.9413L20.6005 27.4647L16.1878 28.4764V26.3856L19.1693 25.3738L19.3414 22.6085L16.1878 23.0604V15.459Z" fill="#E9CA32"/>
</svg>
