<svg width="113" height="44" viewBox="0 0 113 44" fill="none" xmlns="http://www.w3.org/2000/svg">
<rect x="0.316406" y="0.975586" width="112.683" height="42.2561" rx="4" fill="#F29111"/>
<path d="M48.1535 13.5441H51.4505L52.9205 24.0651H52.9625L54.4325 13.5441H57.7295V28.2441H55.5455V17.1141H55.5035L53.8235 28.2441H51.8915L50.2115 17.1141H50.1695V28.2441H48.1535V13.5441ZM61.5743 21.9861L58.7813 13.5441H61.2383L62.8133 18.9411H62.8553L64.4303 13.5441H66.6773L63.8843 21.9861V28.2441H61.5743V21.9861ZM70.3929 28.4541C69.2729 28.4541 68.4259 28.1391 67.8519 27.5091C67.2779 26.8651 66.9909 25.9481 66.9909 24.7581V23.9181H69.1749V24.9261C69.1749 25.8781 69.5739 26.3541 70.3719 26.3541C70.7639 26.3541 71.0579 26.2421 71.2539 26.0181C71.4639 25.7801 71.5689 25.4021 71.5689 24.8841C71.5689 24.2681 71.4289 23.7291 71.1489 23.2671C70.8689 22.7911 70.3509 22.2241 69.5949 21.5661C68.6429 20.7261 67.9779 19.9701 67.5999 19.2981C67.2219 18.6121 67.0329 17.8421 67.0329 16.9881C67.0329 15.8261 67.3269 14.9301 67.9149 14.3001C68.5029 13.6561 69.3569 13.3341 70.4769 13.3341C71.5829 13.3341 72.4159 13.6561 72.9759 14.3001C73.5499 14.9301 73.8369 15.8401 73.8369 17.0301V17.6391H71.6529V16.8831C71.6529 16.3791 71.5549 16.0151 71.3589 15.7911C71.1629 15.5531 70.8759 15.4341 70.4979 15.4341C69.7279 15.4341 69.3429 15.9031 69.3429 16.8411C69.3429 17.3731 69.4829 17.8701 69.7629 18.3321C70.0569 18.7941 70.5819 19.3541 71.3379 20.0121C72.3039 20.8521 72.9689 21.6151 73.3329 22.3011C73.6969 22.9871 73.8789 23.7921 73.8789 24.7161C73.8789 25.9201 73.5779 26.8441 72.9759 27.4881C72.3879 28.1321 71.5269 28.4541 70.3929 28.4541ZM82.0073 29.6091C80.9573 29.6091 80.3133 29.1401 80.0753 28.2021C79.6413 28.3701 79.1303 28.4541 78.5423 28.4541C77.4083 28.4541 76.5403 28.1321 75.9383 27.4881C75.3363 26.8441 75.0353 25.9341 75.0353 24.7581V17.0301C75.0353 15.8541 75.3363 14.9441 75.9383 14.3001C76.5403 13.6561 77.4083 13.3341 78.5423 13.3341C79.6763 13.3341 80.5443 13.6561 81.1463 14.3001C81.7483 14.9441 82.0493 15.8541 82.0493 17.0301V24.7581C82.0493 25.7381 81.8323 26.5431 81.3983 27.1731C81.4823 27.3131 81.5873 27.4041 81.7133 27.4461C81.8393 27.4881 82.0213 27.5091 82.2593 27.5091H82.6163V29.6091H82.0073ZM78.5423 26.3541C79.3403 26.3541 79.7393 25.8711 79.7393 24.9051V16.8831C79.7393 15.9171 79.3403 15.4341 78.5423 15.4341C77.7443 15.4341 77.3453 15.9171 77.3453 16.8831V24.9051C77.3453 25.8711 77.7443 26.3541 78.5423 26.3541ZM83.6115 13.5441H85.9215V26.1441H89.7225V28.2441H83.6115V13.5441Z" fill="white"/>
<path d="M8.53388 12.2443C8.06457 12.2372 7.65538 12.4173 7.44401 12.945C7.08179 13.8336 7.98053 14.7075 8.28915 15.1586C8.51697 15.4724 8.81226 15.8282 8.97244 16.1829C9.06644 16.4153 9.09357 16.6616 9.18785 16.9071C9.4022 17.5082 9.60293 18.1779 9.88519 18.7384C10.0322 19.0254 10.193 19.3262 10.3807 19.5845C10.489 19.7357 10.6761 19.8031 10.7165 20.0498C10.5294 20.3227 10.5148 20.7328 10.4076 21.0746C9.92502 22.6186 10.1124 24.5312 10.7967 25.665C11.0108 26.0065 11.5212 26.7581 12.2052 26.4705C12.8087 26.225 12.6745 25.4462 12.8488 24.7635C12.8889 24.5984 12.8621 24.4901 12.9423 24.381V24.4086C13.13 24.7906 13.3183 25.1586 13.4926 25.5424C13.9089 26.2112 14.6323 26.9082 15.2364 27.3723C15.5574 27.6191 15.8125 28.042 16.2148 28.1928V28.1514H16.1884C16.1076 28.0288 15.9872 27.9738 15.8797 27.8786C15.6384 27.6325 15.3709 27.3317 15.1824 27.0586C14.6193 26.2938 14.1224 25.4463 13.6808 24.572C13.4656 24.1475 13.2782 23.6834 13.1037 23.2602C13.0234 23.097 13.0234 22.8503 12.889 22.7685C12.6873 23.0688 12.393 23.3286 12.2457 23.6964C11.9907 24.2846 11.964 25.0085 11.8694 25.7603C11.8161 25.7746 11.843 25.7604 11.8161 25.7876C11.3874 25.6784 11.2399 25.2276 11.0785 24.8463C10.6762 23.8749 10.6085 22.3174 10.9579 21.197C11.0513 20.9106 11.4548 20.0089 11.2932 19.7357C11.2121 19.475 10.944 19.326 10.7967 19.1202C10.6228 18.8607 10.434 18.5334 10.3145 18.2458C9.99246 17.481 9.83057 16.6336 9.48297 15.8688C9.32192 15.5129 9.03953 15.1441 8.81228 14.8169C8.55696 14.4479 8.27569 14.1884 8.07423 13.7517C8.00775 13.601 7.91379 13.3548 8.02068 13.1914C8.04705 13.0819 8.10149 13.0408 8.20895 13.0134C8.38233 12.8631 8.87919 13.054 9.05313 13.136C9.54974 13.3403 9.96547 13.5325 10.3807 13.8189C10.5687 13.9558 10.7699 14.2155 11.0109 14.2844H11.2932C11.7222 14.3793 12.2053 14.3108 12.6079 14.4343C13.3183 14.6664 13.9619 15.0079 14.5391 15.3769C16.2954 16.511 17.7438 18.1237 18.7224 20.0498C18.8837 20.3636 18.9514 20.6506 19.0987 20.9779C19.3804 21.6487 19.7296 22.332 20.0107 22.9871C20.2921 23.6294 20.5608 24.2845 20.9637 24.8182C21.1643 25.1046 21.9693 25.2549 22.3315 25.4053C22.5991 25.5279 23.0155 25.6373 23.2571 25.7874C23.713 26.0738 24.1681 26.4022 24.598 26.7169C24.812 26.8809 25.4827 27.2222 25.5231 27.4958L25.5233 27.4961C24.4499 27.4687 23.6184 27.5778 22.9212 27.8786C22.7201 27.9605 22.3985 27.9604 22.371 28.2201C22.479 28.3292 22.4921 28.5068 22.5866 28.6578C22.7471 28.931 23.0282 29.2993 23.2835 29.4911C23.5652 29.7098 23.8468 29.9276 24.1422 30.1188C24.6649 30.4481 25.2552 30.6386 25.7642 30.9667C26.0602 31.1577 26.3542 31.4034 26.6503 31.6089C26.7973 31.7182 26.8903 31.896 27.0789 31.9637V31.9221C26.9843 31.7994 26.9581 31.622 26.8647 31.4846C26.7309 31.349 26.5964 31.2253 26.462 31.0892C26.0728 30.5565 25.5894 30.0923 25.0675 29.7097C24.638 29.4083 23.6987 28.9983 23.5251 28.4943C23.5251 28.4943 23.5109 28.48 23.4977 28.4665C23.7928 28.4388 24.1423 28.3293 24.4238 28.2464C24.8791 28.1238 25.2948 28.1514 25.7642 28.0288C25.9791 27.9737 26.1937 27.9052 26.4092 27.838V27.7142C26.1665 27.4688 25.993 27.1403 25.7382 26.9082C25.0548 26.3073 24.3028 25.7202 23.5251 25.2276C23.1087 24.9543 22.5721 24.7775 22.1294 24.5447C21.9692 24.4626 21.7013 24.4221 21.607 24.2847C21.3654 23.9843 21.2307 23.5886 21.0567 23.2328C20.6682 22.4822 20.2921 21.649 19.9574 20.8553C19.7161 20.3228 19.5686 19.7904 19.2734 19.2982C17.8913 16.9751 16.3896 15.5686 14.0828 14.1884C13.5865 13.9011 12.9965 13.7784 12.3666 13.6281C12.0308 13.6138 11.6958 13.5871 11.3606 13.5737C11.1456 13.4776 10.9306 13.2178 10.7432 13.0949C10.2652 12.7876 9.31606 12.2562 8.53388 12.2443ZM11.8427 15.6216C11.6152 15.6216 11.4546 15.6497 11.2927 15.6903V15.7176H11.3189C11.4272 15.9357 11.6153 16.0872 11.7482 16.2782C11.8563 16.4968 11.9502 16.7145 12.0574 16.9335C12.0706 16.92 12.0833 16.9059 12.0833 16.9059C12.2725 16.7699 12.3664 16.5514 12.3664 16.223C12.2853 16.1267 12.2726 16.0318 12.205 15.9357C12.1247 15.7994 11.9502 15.7311 11.8427 15.6216Z" fill="white"/>
</svg>
