<svg width="113" height="44" viewBox="0 0 113 44" fill="none" xmlns="http://www.w3.org/2000/svg">
<rect x="0.316406" y="0.975586" width="112.683" height="42.2561" rx="4" fill="#F29111"/>
<path d="M51.0789 14.6441H53.9049L55.1649 23.6621H55.2009L56.4609 14.6441H59.2869V27.2441H57.4149V17.7041H57.3789L55.9389 27.2441H54.2829L52.8429 17.7041H52.8069V27.2441H51.0789V14.6441ZM62.5824 21.8801L60.1884 14.6441H62.2944L63.6444 19.2701H63.6804L65.0304 14.6441H66.9564L64.5624 21.8801V27.2441H62.5824V21.8801ZM70.1411 27.4241C69.1811 27.4241 68.4551 27.1541 67.9631 26.6141C67.4711 26.0621 67.2251 25.2761 67.2251 24.2561V23.5361H69.0971V24.4001C69.0971 25.2161 69.4391 25.6241 70.1231 25.6241C70.4591 25.6241 70.7111 25.5281 70.8791 25.3361C71.0591 25.1321 71.1491 24.8081 71.1491 24.3641C71.1491 23.8361 71.0291 23.3741 70.7891 22.9781C70.5491 22.5701 70.1051 22.0841 69.4571 21.5201C68.6411 20.8001 68.0711 20.1521 67.7471 19.5761C67.4231 18.9881 67.2611 18.3281 67.2611 17.5961C67.2611 16.6001 67.5131 15.8321 68.0171 15.2921C68.5211 14.7401 69.2531 14.4641 70.2131 14.4641C71.1611 14.4641 71.8751 14.7401 72.3551 15.2921C72.8471 15.8321 73.0931 16.6121 73.0931 17.6321V18.1541H71.2211V17.5061C71.2211 17.0741 71.1371 16.7621 70.9691 16.5701C70.8011 16.3661 70.5551 16.2641 70.2311 16.2641C69.5711 16.2641 69.2411 16.6661 69.2411 17.4701C69.2411 17.9261 69.3611 18.3521 69.6011 18.7481C69.8531 19.1441 70.3031 19.6241 70.9511 20.1881C71.7791 20.9081 72.3491 21.5621 72.6611 22.1501C72.9731 22.7381 73.1291 23.4281 73.1291 24.2201C73.1291 25.2521 72.8711 26.0441 72.3551 26.5961C71.8511 27.1481 71.1131 27.4241 70.1411 27.4241ZM80.0964 28.4141C79.1964 28.4141 78.6444 28.0121 78.4404 27.2081C78.0684 27.3521 77.6304 27.4241 77.1264 27.4241C76.1544 27.4241 75.4104 27.1481 74.8944 26.5961C74.3784 26.0441 74.1204 25.2641 74.1204 24.2561V17.6321C74.1204 16.6241 74.3784 15.8441 74.8944 15.2921C75.4104 14.7401 76.1544 14.4641 77.1264 14.4641C78.0984 14.4641 78.8424 14.7401 79.3584 15.2921C79.8744 15.8441 80.1324 16.6241 80.1324 17.6321V24.2561C80.1324 25.0961 79.9464 25.7861 79.5744 26.3261C79.6464 26.4461 79.7364 26.5241 79.8444 26.5601C79.9524 26.5961 80.1084 26.6141 80.3124 26.6141H80.6184V28.4141H80.0964ZM77.1264 25.6241C77.8104 25.6241 78.1524 25.2101 78.1524 24.3821V17.5061C78.1524 16.6781 77.8104 16.2641 77.1264 16.2641C76.4424 16.2641 76.1004 16.6781 76.1004 17.5061V24.3821C76.1004 25.2101 76.4424 25.6241 77.1264 25.6241ZM81.4714 14.6441H83.4514V25.4441H86.7094V27.2441H81.4714V14.6441Z" fill="white"/>
<path d="M8.53388 12.2443C8.06457 12.2372 7.65538 12.4173 7.44401 12.945C7.08179 13.8336 7.98053 14.7075 8.28915 15.1586C8.51697 15.4724 8.81226 15.8282 8.97244 16.1829C9.06644 16.4153 9.09357 16.6616 9.18785 16.9071C9.4022 17.5082 9.60293 18.1779 9.88519 18.7384C10.0322 19.0254 10.193 19.3262 10.3807 19.5845C10.489 19.7357 10.6761 19.8031 10.7165 20.0498C10.5294 20.3227 10.5148 20.7328 10.4076 21.0746C9.92502 22.6186 10.1124 24.5312 10.7967 25.665C11.0108 26.0065 11.5212 26.7581 12.2052 26.4705C12.8087 26.225 12.6745 25.4462 12.8488 24.7635C12.8889 24.5984 12.8621 24.4901 12.9423 24.381V24.4086C13.13 24.7906 13.3183 25.1586 13.4926 25.5424C13.9089 26.2112 14.6323 26.9082 15.2364 27.3723C15.5574 27.6191 15.8125 28.042 16.2148 28.1928V28.1514H16.1884C16.1076 28.0288 15.9872 27.9738 15.8797 27.8786C15.6384 27.6325 15.3709 27.3317 15.1824 27.0586C14.6193 26.2938 14.1224 25.4463 13.6808 24.572C13.4656 24.1475 13.2782 23.6834 13.1037 23.2602C13.0234 23.097 13.0234 22.8503 12.889 22.7685C12.6873 23.0688 12.393 23.3286 12.2457 23.6964C11.9907 24.2846 11.964 25.0085 11.8694 25.7603C11.8161 25.7746 11.843 25.7604 11.8161 25.7876C11.3874 25.6784 11.2399 25.2276 11.0785 24.8463C10.6762 23.8749 10.6085 22.3174 10.9579 21.197C11.0513 20.9106 11.4548 20.0089 11.2932 19.7357C11.2121 19.475 10.944 19.326 10.7967 19.1202C10.6228 18.8607 10.434 18.5334 10.3145 18.2458C9.99246 17.481 9.83057 16.6336 9.48297 15.8688C9.32192 15.5129 9.03953 15.1441 8.81228 14.8169C8.55696 14.4479 8.27569 14.1884 8.07423 13.7517C8.00775 13.601 7.91379 13.3548 8.02068 13.1914C8.04705 13.0819 8.10149 13.0408 8.20895 13.0134C8.38233 12.8631 8.87919 13.054 9.05313 13.136C9.54974 13.3403 9.96547 13.5325 10.3807 13.8189C10.5687 13.9558 10.7699 14.2155 11.0109 14.2844H11.2932C11.7222 14.3793 12.2053 14.3108 12.6079 14.4343C13.3183 14.6664 13.9619 15.0079 14.5391 15.3769C16.2954 16.511 17.7438 18.1237 18.7224 20.0498C18.8837 20.3636 18.9514 20.6506 19.0987 20.9779C19.3804 21.6487 19.7296 22.332 20.0107 22.9871C20.2921 23.6294 20.5608 24.2845 20.9637 24.8182C21.1643 25.1046 21.9693 25.2549 22.3315 25.4053C22.5991 25.5279 23.0155 25.6373 23.2571 25.7874C23.713 26.0738 24.1681 26.4022 24.598 26.7169C24.812 26.8809 25.4827 27.2222 25.5231 27.4958L25.5233 27.4961C24.4499 27.4687 23.6184 27.5778 22.9212 27.8786C22.7201 27.9605 22.3985 27.9604 22.371 28.2201C22.479 28.3292 22.4921 28.5068 22.5866 28.6578C22.7471 28.931 23.0282 29.2993 23.2835 29.4911C23.5652 29.7098 23.8468 29.9276 24.1422 30.1188C24.6649 30.4481 25.2552 30.6386 25.7642 30.9667C26.0602 31.1577 26.3542 31.4034 26.6503 31.6089C26.7973 31.7182 26.8903 31.896 27.0789 31.9637V31.9221C26.9843 31.7994 26.9581 31.622 26.8647 31.4846C26.7309 31.349 26.5964 31.2253 26.462 31.0892C26.0728 30.5565 25.5894 30.0923 25.0675 29.7097C24.638 29.4083 23.6987 28.9983 23.5251 28.4943C23.5251 28.4943 23.5109 28.48 23.4977 28.4665C23.7928 28.4388 24.1423 28.3293 24.4238 28.2464C24.8791 28.1238 25.2948 28.1514 25.7642 28.0288C25.9791 27.9737 26.1937 27.9052 26.4092 27.838V27.7142C26.1665 27.4688 25.993 27.1403 25.7382 26.9082C25.0548 26.3073 24.3028 25.7202 23.5251 25.2276C23.1087 24.9543 22.5721 24.7775 22.1294 24.5447C21.9692 24.4626 21.7013 24.4221 21.607 24.2847C21.3654 23.9843 21.2307 23.5886 21.0567 23.2328C20.6682 22.4822 20.2921 21.649 19.9574 20.8553C19.7161 20.3228 19.5686 19.7904 19.2734 19.2982C17.8913 16.9751 16.3896 15.5686 14.0828 14.1884C13.5865 13.9011 12.9965 13.7784 12.3666 13.6281C12.0308 13.6138 11.6958 13.5871 11.3606 13.5737C11.1456 13.4776 10.9306 13.2178 10.7432 13.0949C10.2652 12.7876 9.31606 12.2562 8.53388 12.2443ZM11.8427 15.6216C11.6152 15.6216 11.4546 15.6497 11.2927 15.6903V15.7176H11.3189C11.4272 15.9357 11.6153 16.0872 11.7482 16.2782C11.8563 16.4968 11.9502 16.7145 12.0574 16.9335C12.0706 16.92 12.0833 16.9059 12.0833 16.9059C12.2725 16.7699 12.3664 16.5514 12.3664 16.223C12.2853 16.1267 12.2726 16.0318 12.205 15.9357C12.1247 15.7994 11.9502 15.7311 11.8427 15.6216Z" fill="white"/>
</svg>
