<svg width="113" height="44" viewBox="0 0 113 44" fill="none" xmlns="http://www.w3.org/2000/svg">
<rect y="0.975586" width="112.683" height="42.2561" rx="4" fill="#777BB3"/>
<path d="M58.3298 14.6441H61.2458C62.2298 14.6441 62.9678 14.9081 63.4598 15.4361C63.9518 15.9641 64.1978 16.7381 64.1978 17.7581V19.0001C64.1978 20.0201 63.9518 20.7941 63.4598 21.3221C62.9678 21.8501 62.2298 22.1141 61.2458 22.1141H60.3098V27.2441H58.3298V14.6441ZM61.2458 20.3141C61.5698 20.3141 61.8098 20.2241 61.9658 20.0441C62.1338 19.8641 62.2178 19.5581 62.2178 19.1261V17.6321C62.2178 17.2001 62.1338 16.8941 61.9658 16.7141C61.8098 16.5341 61.5698 16.4441 61.2458 16.4441H60.3098V20.3141H61.2458ZM65.2732 14.6441H67.2532V19.7741H69.3772V14.6441H71.3572V27.2441H69.3772V21.5741H67.2532V27.2441H65.2732V14.6441ZM72.8318 14.6441H75.7478C76.7318 14.6441 77.4698 14.9081 77.9618 15.4361C78.4538 15.9641 78.6998 16.7381 78.6998 17.7581V19.0001C78.6998 20.0201 78.4538 20.7941 77.9618 21.3221C77.4698 21.8501 76.7318 22.1141 75.7478 22.1141H74.8118V27.2441H72.8318V14.6441ZM75.7478 20.3141C76.0718 20.3141 76.3118 20.2241 76.4678 20.0441C76.6358 19.8641 76.7198 19.5581 76.7198 19.1261V17.6321C76.7198 17.2001 76.6358 16.8941 76.4678 16.7141C76.3118 16.5341 76.0718 16.4441 75.7478 16.4441H74.8118V20.3141H75.7478Z" fill="white"/>
<path d="M20.835 29.1465C28.452 29.1465 34.627 25.9933 34.627 22.1037C34.627 18.2141 28.452 15.0609 20.835 15.0609C13.218 15.0609 7.04297 18.2141 7.04297 22.1037C7.04297 25.9933 13.218 29.1465 20.835 29.1465Z" fill="white"/>
<path d="M14.281 22.9786C14.9073 22.9786 15.3749 22.8622 15.6707 22.6328C15.9634 22.4057 16.1656 22.0123 16.2715 21.4635C16.3703 20.9506 16.3327 20.5925 16.1597 20.3992C15.9828 20.2018 15.6004 20.1017 15.0232 20.1017H14.0223L13.4674 22.9786H14.281ZM11.0073 26.5225C10.9608 26.5225 10.9167 26.5015 10.8871 26.4653C10.8575 26.4292 10.8455 26.3816 10.8544 26.3356L12.325 18.7117C12.3392 18.638 12.4033 18.5847 12.4779 18.5847H15.6473C16.6434 18.5847 17.3848 18.8572 17.8508 19.3948C18.3193 19.9352 18.464 20.6906 18.2808 21.6399C18.2063 22.0267 18.0781 22.3859 17.8997 22.7075C17.7212 23.0294 17.4853 23.3273 17.1984 23.5931C16.8549 23.9169 16.4662 24.1518 16.044 24.29C15.6286 24.4264 15.095 24.4955 14.4582 24.4955H13.1748L12.8083 26.3955C12.7941 26.4692 12.7301 26.5225 12.6555 26.5225H11.0073Z" fill="#777BB3"/>
<path d="M22.0591 24.4961C22.0126 24.4961 21.9685 24.4752 21.939 24.439C21.9093 24.4028 21.8973 24.3553 21.9062 24.3092L22.5567 20.936C22.6186 20.6152 22.6034 20.3849 22.5138 20.2876C22.459 20.2281 22.2943 20.1284 21.8074 20.1284H20.6289L19.811 24.3691C19.7968 24.4428 19.7327 24.4961 19.6582 24.4961H18.0229C17.9764 24.4961 17.9323 24.4752 17.9028 24.439C17.8732 24.4028 17.8612 24.3552 17.8701 24.3092L19.3406 16.6853C19.3548 16.6116 19.419 16.5584 19.4935 16.5584H21.1287C21.1752 16.5584 21.2193 16.5793 21.2489 16.6154C21.2785 16.6516 21.2905 16.6992 21.2816 16.7452L20.9267 18.5853H22.1945C23.1604 18.5853 23.8153 18.7569 24.1967 19.1098C24.5856 19.4699 24.7069 20.0457 24.5574 20.8213L23.8732 24.3691C23.859 24.4428 23.7949 24.4961 23.7203 24.4961H22.0591Z" fill="#777BB3"/>
<path d="M27.1443 22.9786C27.7706 22.9786 28.2382 22.8622 28.534 22.6328C28.8267 22.4058 29.0288 22.0124 29.1348 21.4635C29.2336 20.9506 29.196 20.5925 29.023 20.3992C28.8461 20.2018 28.4637 20.1017 27.8865 20.1017H26.8855L26.3306 22.9786H27.1443ZM23.8706 26.5225C23.8241 26.5225 23.78 26.5015 23.7505 26.4653C23.7209 26.4292 23.7088 26.3816 23.7177 26.3356L25.1883 18.7117C25.2025 18.638 25.2666 18.5847 25.3412 18.5847H28.5106C29.5067 18.5847 30.2481 18.8572 30.7142 19.3948C31.1827 19.9352 31.3273 20.6905 31.1442 21.6399C31.0695 22.0267 30.9413 22.3859 30.763 22.7075C30.5845 23.0294 30.3485 23.3273 30.0616 23.5931C29.7182 23.9169 29.3295 24.1518 28.9073 24.29C28.4919 24.4264 27.9583 24.4955 27.3215 24.4955H26.0381L25.6717 26.3955C25.6575 26.4692 25.5934 26.5225 25.5188 26.5225H23.8706Z" fill="#777BB3"/>
</svg>
