<svg width="113" height="44" viewBox="0 0 113 44" fill="none" xmlns="http://www.w3.org/2000/svg">
<rect y="0.975586" width="112.683" height="42.2561" rx="4" fill="#777BB3"/>
<path d="M56.6657 13.5441H60.0677C61.2157 13.5441 62.0767 13.8521 62.6507 14.4681C63.2247 15.0841 63.5117 15.9871 63.5117 17.1771V18.6261C63.5117 19.8161 63.2247 20.7191 62.6507 21.3351C62.0767 21.9511 61.2157 22.2591 60.0677 22.2591H58.9757V28.2441H56.6657V13.5441ZM60.0677 20.1591C60.4457 20.1591 60.7257 20.0541 60.9077 19.8441C61.1037 19.6341 61.2017 19.2771 61.2017 18.7731V17.0301C61.2017 16.5261 61.1037 16.1691 60.9077 15.9591C60.7257 15.7491 60.4457 15.6441 60.0677 15.6441H58.9757V20.1591H60.0677ZM64.7663 13.5441H67.0763V19.5291H69.5543V13.5441H71.8643V28.2441H69.5543V21.6291H67.0763V28.2441H64.7663V13.5441ZM73.5847 13.5441H76.9867C78.1347 13.5441 78.9957 13.8521 79.5697 14.4681C80.1437 15.0841 80.4307 15.9871 80.4307 17.1771V18.6261C80.4307 19.8161 80.1437 20.7191 79.5697 21.3351C78.9957 21.9511 78.1347 22.2591 76.9867 22.2591H75.8947V28.2441H73.5847V13.5441ZM76.9867 20.1591C77.3647 20.1591 77.6447 20.0541 77.8267 19.8441C78.0227 19.6341 78.1207 19.2771 78.1207 18.7731V17.0301C78.1207 16.5261 78.0227 16.1691 77.8267 15.9591C77.6447 15.7491 77.3647 15.6441 76.9867 15.6441H75.8947V20.1591H76.9867Z" fill="white"/>
<path d="M20.835 29.1465C28.452 29.1465 34.627 25.9933 34.627 22.1037C34.627 18.2141 28.452 15.0609 20.835 15.0609C13.218 15.0609 7.04297 18.2141 7.04297 22.1037C7.04297 25.9933 13.218 29.1465 20.835 29.1465Z" fill="white"/>
<path d="M14.281 22.9786C14.9073 22.9786 15.3749 22.8622 15.6707 22.6328C15.9634 22.4057 16.1656 22.0123 16.2715 21.4635C16.3703 20.9506 16.3327 20.5925 16.1597 20.3992C15.9828 20.2018 15.6004 20.1017 15.0232 20.1017H14.0223L13.4674 22.9786H14.281ZM11.0073 26.5225C10.9608 26.5225 10.9167 26.5015 10.8871 26.4653C10.8575 26.4292 10.8455 26.3816 10.8544 26.3356L12.325 18.7117C12.3392 18.638 12.4033 18.5847 12.4779 18.5847H15.6473C16.6434 18.5847 17.3848 18.8572 17.8508 19.3948C18.3193 19.9352 18.464 20.6906 18.2808 21.6399C18.2063 22.0267 18.0781 22.3859 17.8997 22.7075C17.7212 23.0294 17.4853 23.3273 17.1984 23.5931C16.8549 23.9169 16.4662 24.1518 16.044 24.29C15.6286 24.4264 15.095 24.4955 14.4582 24.4955H13.1748L12.8083 26.3955C12.7941 26.4692 12.7301 26.5225 12.6555 26.5225H11.0073Z" fill="#777BB3"/>
<path d="M22.0591 24.4961C22.0126 24.4961 21.9685 24.4752 21.939 24.439C21.9093 24.4028 21.8973 24.3553 21.9062 24.3092L22.5567 20.936C22.6186 20.6152 22.6034 20.3849 22.5138 20.2876C22.459 20.2281 22.2943 20.1284 21.8074 20.1284H20.6289L19.811 24.3691C19.7968 24.4428 19.7327 24.4961 19.6582 24.4961H18.0229C17.9764 24.4961 17.9323 24.4752 17.9028 24.439C17.8732 24.4028 17.8612 24.3552 17.8701 24.3092L19.3406 16.6853C19.3548 16.6116 19.419 16.5584 19.4935 16.5584H21.1287C21.1752 16.5584 21.2193 16.5793 21.2489 16.6154C21.2785 16.6516 21.2905 16.6992 21.2816 16.7452L20.9267 18.5853H22.1945C23.1604 18.5853 23.8153 18.7569 24.1967 19.1098C24.5856 19.4699 24.7069 20.0457 24.5574 20.8213L23.8732 24.3691C23.859 24.4428 23.7949 24.4961 23.7203 24.4961H22.0591Z" fill="#777BB3"/>
<path d="M27.1443 22.9786C27.7706 22.9786 28.2382 22.8622 28.534 22.6328C28.8267 22.4058 29.0288 22.0124 29.1348 21.4635C29.2336 20.9506 29.196 20.5925 29.023 20.3992C28.8461 20.2018 28.4637 20.1017 27.8865 20.1017H26.8855L26.3306 22.9786H27.1443ZM23.8706 26.5225C23.8241 26.5225 23.78 26.5015 23.7505 26.4653C23.7209 26.4292 23.7088 26.3816 23.7177 26.3356L25.1883 18.7117C25.2025 18.638 25.2666 18.5847 25.3412 18.5847H28.5106C29.5067 18.5847 30.2481 18.8572 30.7142 19.3948C31.1827 19.9352 31.3273 20.6905 31.1442 21.6399C31.0695 22.0267 30.9413 22.3859 30.763 22.7075C30.5845 23.0294 30.3485 23.3273 30.0616 23.5931C29.7182 23.9169 29.3295 24.1518 28.9073 24.29C28.4919 24.4264 27.9583 24.4955 27.3215 24.4955H26.0381L25.6717 26.3955C25.6575 26.4692 25.5934 26.5225 25.5188 26.5225H23.8706Z" fill="#777BB3"/>
</svg>
