<svg width="113" height="43" viewBox="0 0 113 43" fill="none" xmlns="http://www.w3.org/2000/svg">
<rect y="0.390625" width="112.683" height="42.2561" rx="4" fill="#FFE052"/>
<path d="M47.5457 14.0592H50.4617C51.4457 14.0592 52.1837 14.3232 52.6757 14.8512C53.1677 15.3792 53.4137 16.1532 53.4137 17.1732V18.4152C53.4137 19.4352 53.1677 20.2092 52.6757 20.7372C52.1837 21.2652 51.4457 21.5292 50.4617 21.5292H49.5257V26.6592H47.5457V14.0592ZM50.4617 19.7292C50.7857 19.7292 51.0257 19.6392 51.1817 19.4592C51.3497 19.2792 51.4337 18.9732 51.4337 18.5412V17.0472C51.4337 16.6152 51.3497 16.3092 51.1817 16.1292C51.0257 15.9492 50.7857 15.8592 50.4617 15.8592H49.5257V19.7292H50.4617ZM56.2191 21.2952L53.8251 14.0592H55.9311L57.2811 18.6852H57.3171L58.6671 14.0592H60.5931L58.1991 21.2952V26.6592H56.2191V21.2952ZM63.1034 15.8592H61.0334V14.0592H67.1534V15.8592H65.0834V26.6592H63.1034V15.8592ZM68.1121 14.0592H70.0921V19.1892H72.2161V14.0592H74.1961V26.6592H72.2161V20.9892H70.0921V26.6592H68.1121V14.0592ZM78.5327 26.8392C77.5607 26.8392 76.8167 26.5632 76.3007 26.0112C75.7847 25.4592 75.5267 24.6792 75.5267 23.6712V17.0472C75.5267 16.0392 75.7847 15.2592 76.3007 14.7072C76.8167 14.1552 77.5607 13.8792 78.5327 13.8792C79.5047 13.8792 80.2487 14.1552 80.7647 14.7072C81.2807 15.2592 81.5387 16.0392 81.5387 17.0472V23.6712C81.5387 24.6792 81.2807 25.4592 80.7647 26.0112C80.2487 26.5632 79.5047 26.8392 78.5327 26.8392ZM78.5327 25.0392C79.2167 25.0392 79.5587 24.6252 79.5587 23.7972V16.9212C79.5587 16.0932 79.2167 15.6792 78.5327 15.6792C77.8487 15.6792 77.5067 16.0932 77.5067 16.9212V23.7972C77.5067 24.6252 77.8487 25.0392 78.5327 25.0392ZM82.8777 14.0592H85.3617L87.2877 21.6012H87.3237V14.0592H89.0877V26.6592H87.0537L84.6777 17.4612H84.6417V26.6592H82.8777V14.0592Z" fill="white"/>
<path d="M16.8331 11.6592C11.8263 11.6592 12.1389 13.8417 12.1389 13.8417L12.1445 16.1028H16.9224V16.7816H10.2468C10.2468 16.7816 7.04297 16.4164 7.04297 21.4944C7.04297 26.5725 9.83935 26.3924 9.83935 26.3924H11.5082V24.036C11.5082 24.036 11.4183 21.2251 14.26 21.2251H18.9988C18.9988 21.2251 21.6612 21.2683 21.6612 18.6386V14.2906C21.6612 14.2906 22.0655 11.6592 16.8331 11.6592ZM14.1986 13.1797C14.3115 13.1796 14.4233 13.2019 14.5276 13.2453C14.632 13.2887 14.7267 13.3523 14.8066 13.4326C14.8864 13.5128 14.9497 13.6081 14.9929 13.713C15.036 13.8178 15.0582 13.9302 15.0581 14.0437C15.0582 14.1572 15.036 14.2696 14.9929 14.3745C14.9497 14.4794 14.8864 14.5746 14.8066 14.6549C14.7267 14.7351 14.632 14.7988 14.5276 14.8422C14.4233 14.8855 14.3115 14.9078 14.1986 14.9077C14.0857 14.9078 13.9739 14.8855 13.8695 14.8422C13.7652 14.7988 13.6704 14.7351 13.5906 14.6549C13.5107 14.5746 13.4474 14.4794 13.4043 14.3745C13.3611 14.2696 13.3389 14.1572 13.339 14.0437C13.3389 13.9302 13.3611 13.8178 13.4043 13.713C13.4474 13.6081 13.5107 13.5128 13.5906 13.4326C13.6704 13.3523 13.7652 13.2887 13.8695 13.2453C13.9739 13.2019 14.0857 13.1796 14.1986 13.1797Z" fill="white"/>
<path d="M16.9721 31.3796C21.9789 31.3796 21.6663 29.1971 21.6663 29.1971L21.6607 26.936H16.8828V26.2572H23.5583C23.5583 26.2572 26.7621 26.6224 26.7621 21.5443C26.7621 16.4662 23.9658 16.6463 23.9658 16.6463H22.2969V19.0027C22.2969 19.0027 22.3869 21.8136 19.5451 21.8136H14.8064C14.8064 21.8136 12.144 21.7703 12.144 24.4001V28.7482C12.144 28.7482 11.7397 31.3796 16.972 31.3796H16.9721ZM19.6066 29.8591C19.4937 29.8592 19.3819 29.837 19.2776 29.7936C19.1732 29.7502 19.0784 29.6866 18.9986 29.6063C18.9188 29.5261 18.8555 29.4308 18.8123 29.3259C18.7691 29.221 18.747 29.1086 18.7471 28.9952C18.747 28.8817 18.7691 28.7693 18.8123 28.6644C18.8554 28.5595 18.9187 28.4642 18.9986 28.3839C19.0784 28.3037 19.1732 28.24 19.2775 28.1967C19.3819 28.1533 19.4937 28.131 19.6066 28.1311C19.7195 28.131 19.8313 28.1533 19.9357 28.1966C20.04 28.24 20.1348 28.3037 20.2146 28.3839C20.2945 28.4642 20.3578 28.5595 20.4009 28.6643C20.4441 28.7692 20.4663 28.8816 20.4662 28.9951C20.4663 29.1086 20.4441 29.221 20.4009 29.3258C20.3578 29.4307 20.2945 29.526 20.2146 29.6062C20.1348 29.6865 20.04 29.7501 19.9357 29.7935C19.8313 29.8369 19.7195 29.8592 19.6066 29.8591Z" fill="white"/>
</svg>
