<svg width="113" height="43" viewBox="0 0 113 43" fill="none" xmlns="http://www.w3.org/2000/svg">
<rect y="0.390625" width="112.683" height="42.2561" rx="4" fill="#FFE052"/>
<path d="M44.0959 13.3H47.4979C48.6459 13.3 49.5069 13.608 50.0809 14.224C50.6549 14.84 50.9419 15.743 50.9419 16.933V18.382C50.9419 19.572 50.6549 20.475 50.0809 21.091C49.5069 21.707 48.6459 22.015 47.4979 22.015H46.4059V28H44.0959V13.3ZM47.4979 19.915C47.8759 19.915 48.1559 19.81 48.3379 19.6C48.5339 19.39 48.6319 19.033 48.6319 18.529V16.786C48.6319 16.282 48.5339 15.925 48.3379 15.715C48.1559 15.505 47.8759 15.4 47.4979 15.4H46.4059V19.915H47.4979ZM54.215 21.742L51.422 13.3H53.879L55.454 18.697H55.496L57.071 13.3H59.318L56.525 21.742V28H54.215V21.742ZM62.2466 15.4H59.8316V13.3H66.9716V15.4H64.5566V28H62.2466V15.4ZM68.09 13.3H70.4V19.285H72.8781V13.3H75.188V28H72.8781V21.385H70.4V28H68.09V13.3ZM80.2474 28.21C79.1134 28.21 78.2454 27.888 77.6434 27.244C77.0414 26.6 76.7404 25.69 76.7404 24.514V16.786C76.7404 15.61 77.0414 14.7 77.6434 14.056C78.2454 13.412 79.1134 13.09 80.2474 13.09C81.3814 13.09 82.2494 13.412 82.8514 14.056C83.4534 14.7 83.7544 15.61 83.7544 16.786V24.514C83.7544 25.69 83.4534 26.6 82.8514 27.244C82.2494 27.888 81.3814 28.21 80.2474 28.21ZM80.2474 26.11C81.0454 26.11 81.4444 25.627 81.4444 24.661V16.639C81.4444 15.673 81.0454 15.19 80.2474 15.19C79.4494 15.19 79.0504 15.673 79.0504 16.639V24.661C79.0504 25.627 79.4494 26.11 80.2474 26.11ZM85.3166 13.3H88.2146L90.4616 22.099H90.5036V13.3H92.5616V28H90.1886L87.4166 17.269H87.3746V28H85.3166V13.3Z" fill="white"/>
<path d="M16.8331 11.6592C11.8263 11.6592 12.1389 13.8417 12.1389 13.8417L12.1445 16.1028H16.9224V16.7816H10.2468C10.2468 16.7816 7.04297 16.4164 7.04297 21.4944C7.04297 26.5725 9.83935 26.3924 9.83935 26.3924H11.5082V24.036C11.5082 24.036 11.4183 21.2251 14.26 21.2251H18.9988C18.9988 21.2251 21.6612 21.2683 21.6612 18.6386V14.2906C21.6612 14.2906 22.0655 11.6592 16.8331 11.6592ZM14.1986 13.1797C14.3115 13.1796 14.4233 13.2019 14.5276 13.2453C14.632 13.2887 14.7267 13.3523 14.8066 13.4326C14.8864 13.5128 14.9497 13.6081 14.9929 13.713C15.036 13.8178 15.0582 13.9302 15.0581 14.0437C15.0582 14.1572 15.036 14.2696 14.9929 14.3745C14.9497 14.4794 14.8864 14.5746 14.8066 14.6549C14.7267 14.7351 14.632 14.7988 14.5276 14.8422C14.4233 14.8855 14.3115 14.9078 14.1986 14.9077C14.0857 14.9078 13.9739 14.8855 13.8695 14.8422C13.7652 14.7988 13.6704 14.7351 13.5906 14.6549C13.5107 14.5746 13.4474 14.4794 13.4043 14.3745C13.3611 14.2696 13.3389 14.1572 13.339 14.0437C13.3389 13.9302 13.3611 13.8178 13.4043 13.713C13.4474 13.6081 13.5107 13.5128 13.5906 13.4326C13.6704 13.3523 13.7652 13.2887 13.8695 13.2453C13.9739 13.2019 14.0857 13.1796 14.1986 13.1797Z" fill="white"/>
<path d="M16.9721 31.3796C21.9789 31.3796 21.6663 29.1971 21.6663 29.1971L21.6607 26.936H16.8828V26.2572H23.5583C23.5583 26.2572 26.7621 26.6224 26.7621 21.5443C26.7621 16.4662 23.9658 16.6463 23.9658 16.6463H22.2969V19.0027C22.2969 19.0027 22.3869 21.8136 19.5451 21.8136H14.8064C14.8064 21.8136 12.144 21.7703 12.144 24.4001V28.7482C12.144 28.7482 11.7397 31.3796 16.972 31.3796H16.9721ZM19.6066 29.8591C19.4937 29.8592 19.3819 29.837 19.2776 29.7936C19.1732 29.7502 19.0784 29.6866 18.9986 29.6063C18.9188 29.5261 18.8555 29.4308 18.8123 29.3259C18.7691 29.221 18.747 29.1086 18.7471 28.9952C18.747 28.8817 18.7691 28.7693 18.8123 28.6644C18.8554 28.5595 18.9187 28.4642 18.9986 28.3839C19.0784 28.3037 19.1732 28.24 19.2775 28.1967C19.3819 28.1533 19.4937 28.131 19.6066 28.1311C19.7195 28.131 19.8313 28.1533 19.9357 28.1966C20.04 28.24 20.1348 28.3037 20.2146 28.3839C20.2945 28.4642 20.3578 28.5595 20.4009 28.6643C20.4441 28.7692 20.4663 28.8816 20.4662 28.9951C20.4663 29.1086 20.4441 29.221 20.4009 29.3258C20.3578 29.4307 20.2945 29.526 20.2146 29.6062C20.1348 29.6865 20.04 29.7501 19.9357 29.7935C19.8313 29.8369 19.7195 29.8592 19.6066 29.8591Z" fill="white"/>
</svg>
