<svg width="113" height="43" viewBox="0 0 113 43" fill="none" xmlns="http://www.w3.org/2000/svg">
<rect x="0.316406" y="0.682617" width="112.683" height="42.2561" rx="4" fill="#2085BD"/>
<path d="M46.2196 16.1512H44.1496V14.3512H50.2696V16.1512H48.1996V26.9512H46.2196V16.1512ZM51.2283 14.3512H53.2083V19.4812H55.3323V14.3512H57.3123V26.9512H55.3323V21.2812H53.2083V26.9512H51.2283V14.3512ZM58.7869 14.3512H61.7209C62.7409 14.3512 63.4849 14.5912 63.9529 15.0712C64.4209 15.5392 64.6549 16.2652 64.6549 17.2492V18.0232C64.6549 19.3312 64.2229 20.1592 63.3589 20.5072V20.5432C63.8389 20.6872 64.1749 20.9812 64.3669 21.4252C64.5709 21.8692 64.6729 22.4632 64.6729 23.2072V25.4212C64.6729 25.7812 64.6849 26.0752 64.7089 26.3032C64.7329 26.5192 64.7929 26.7352 64.8889 26.9512H62.8729C62.8009 26.7472 62.7529 26.5552 62.7289 26.3752C62.7049 26.1952 62.6929 25.8712 62.6929 25.4032V23.0992C62.6929 22.5232 62.5969 22.1212 62.4049 21.8932C62.2249 21.6652 61.9069 21.5512 61.4509 21.5512H60.7669V26.9512H58.7869V14.3512ZM61.4869 19.7512C61.8829 19.7512 62.1769 19.6492 62.3689 19.4452C62.5729 19.2412 62.6749 18.8992 62.6749 18.4192V17.4472C62.6749 16.9912 62.5909 16.6612 62.4229 16.4572C62.2669 16.2532 62.0149 16.1512 61.6669 16.1512H60.7669V19.7512H61.4869ZM66.0466 14.3512H71.4466V16.1512H68.0266V19.4812H70.7446V21.2812H68.0266V25.1512H71.4466V26.9512H66.0466V14.3512ZM72.5857 14.3512H77.9857V16.1512H74.5657V19.4812H77.2837V21.2812H74.5657V25.1512H77.9857V26.9512H72.5857V14.3512ZM79.2127 25.0432H81.1207V26.9512H79.2127V25.0432ZM83.0732 27.0232C82.7132 27.0232 82.4072 26.9992 82.1552 26.9512V25.1512C82.3472 25.1992 82.5632 25.2232 82.8032 25.2232C83.1992 25.2232 83.4932 25.1272 83.6852 24.9352C83.8772 24.7312 83.9732 24.4252 83.9732 24.0172V14.3512H85.9532V23.9632C85.9532 24.9952 85.7132 25.7632 85.2332 26.2672C84.7652 26.7712 84.0452 27.0232 83.0732 27.0232ZM89.9429 27.1312C88.9829 27.1312 88.2569 26.8612 87.7649 26.3212C87.2729 25.7692 87.0269 24.9832 87.0269 23.9632V23.2432H88.8989V24.1072C88.8989 24.9232 89.2409 25.3312 89.9249 25.3312C90.2609 25.3312 90.5129 25.2352 90.6809 25.0432C90.8609 24.8392 90.9509 24.5152 90.9509 24.0712C90.9509 23.5432 90.8309 23.0812 90.5909 22.6852C90.3509 22.2772 89.9069 21.7912 89.2589 21.2272C88.4429 20.5072 87.8729 19.8592 87.5489 19.2832C87.2249 18.6952 87.0629 18.0352 87.0629 17.3032C87.0629 16.3072 87.3149 15.5392 87.8189 14.9992C88.3229 14.4472 89.0549 14.1712 90.0149 14.1712C90.9629 14.1712 91.6769 14.4472 92.1569 14.9992C92.6489 15.5392 92.8949 16.3192 92.8949 17.3392V17.8612H91.0229V17.2132C91.0229 16.7812 90.9389 16.4692 90.7709 16.2772C90.6029 16.0732 90.3569 15.9712 90.0329 15.9712C89.3729 15.9712 89.0429 16.3732 89.0429 17.1772C89.0429 17.6332 89.1629 18.0592 89.4029 18.4552C89.6549 18.8512 90.1049 19.3312 90.7529 19.8952C91.5809 20.6152 92.1509 21.2692 92.4629 21.8572C92.7749 22.4452 92.9309 23.1352 92.9309 23.9272C92.9309 24.9592 92.6729 25.7512 92.1569 26.3032C91.6529 26.8552 90.9149 27.1312 89.9429 27.1312Z" fill="white"/>
<path fill-rule="evenodd" clip-rule="evenodd" d="M12.2426 31.6707L7.35938 11.9512L26.9349 17.573L12.2426 31.6707Z" stroke="white" stroke-width="0.75" stroke-miterlimit="10" stroke-linejoin="round"/>
<path fill-rule="evenodd" clip-rule="evenodd" d="M17.1474 14.8301L19.5886 24.6179L9.80078 21.8274L17.1474 14.8301Z" stroke="white" stroke-width="0.75" stroke-miterlimit="10" stroke-linejoin="round"/>
<path fill-rule="evenodd" clip-rule="evenodd" d="M14.7072 23.1732L13.4989 18.2784L18.3449 19.6688L14.7072 23.1732ZM12.29 13.3896L13.4984 18.2844L8.65234 16.8941L12.29 13.3896ZM21.9817 16.1799L23.1901 21.0746L18.344 19.6843L21.9817 16.1799ZM14.7078 23.1766L15.9161 28.0713L11.0701 26.681L14.7078 23.1766Z" stroke="white" stroke-width="0.75" stroke-miterlimit="10" stroke-linejoin="round"/>
</svg>
