<svg width="113" height="43" viewBox="0 0 113 43" fill="none" xmlns="http://www.w3.org/2000/svg">
<rect x="0.316406" y="0.682617" width="112.683" height="42.2561" rx="4" fill="#2085BD"/>
<path d="M42.4844 15.3512H40.0694V13.2512H47.2094V15.3512H44.7944V27.9512H42.4844V15.3512ZM48.3278 13.2512H50.6378V19.2362H53.1158V13.2512H55.4258V27.9512H53.1158V21.3362H50.6378V27.9512H48.3278V13.2512ZM57.1462 13.2512H60.5692C61.7592 13.2512 62.6272 13.5312 63.1732 14.0912C63.7192 14.6372 63.9922 15.4842 63.9922 16.6322V17.5352C63.9922 19.0612 63.4882 20.0272 62.4802 20.4332V20.4752C63.0402 20.6432 63.4322 20.9862 63.6562 21.5042C63.8942 22.0222 64.0132 22.7152 64.0132 23.5832V26.1662C64.0132 26.5862 64.0272 26.9292 64.0552 27.1952C64.0832 27.4472 64.1532 27.6992 64.2652 27.9512H61.9132C61.8292 27.7132 61.7732 27.4892 61.7452 27.2792C61.7172 27.0692 61.7032 26.6912 61.7032 26.1452V23.4572C61.7032 22.7852 61.5912 22.3162 61.3672 22.0502C61.1572 21.7842 60.7862 21.6512 60.2542 21.6512H59.4562V27.9512H57.1462V13.2512ZM60.2962 19.5512C60.7582 19.5512 61.1012 19.4322 61.3252 19.1942C61.5632 18.9562 61.6822 18.5572 61.6822 17.9972V16.8632C61.6822 16.3312 61.5842 15.9462 61.3882 15.7082C61.2062 15.4702 60.9122 15.3512 60.5062 15.3512H59.4562V19.5512H60.2962ZM65.6159 13.2512H71.9159V15.3512H67.9259V19.2362H71.0969V21.3362H67.9259V25.8512H71.9159V27.9512H65.6159V13.2512ZM73.2448 13.2512H79.5448V15.3512H75.5548V19.2362H78.7258V21.3362H75.5548V25.8512H79.5448V27.9512H73.2448V13.2512ZM80.9763 25.7252H83.2023V27.9512H80.9763V25.7252ZM85.4803 28.0352C85.0603 28.0352 84.7033 28.0072 84.4093 27.9512V25.8512C84.6333 25.9072 84.8853 25.9352 85.1653 25.9352C85.6273 25.9352 85.9703 25.8232 86.1943 25.5992C86.4183 25.3612 86.5303 25.0042 86.5303 24.5282V13.2512H88.8403V24.4652C88.8403 25.6692 88.5603 26.5652 88.0003 27.1532C87.4543 27.7412 86.6143 28.0352 85.4803 28.0352ZM93.4949 28.1612C92.3749 28.1612 91.5279 27.8462 90.9539 27.2162C90.3799 26.5722 90.0929 25.6552 90.0929 24.4652V23.6252H92.2769V24.6332C92.2769 25.5852 92.6759 26.0612 93.4739 26.0612C93.8659 26.0612 94.1599 25.9492 94.3559 25.7252C94.5659 25.4872 94.6709 25.1092 94.6709 24.5912C94.6709 23.9752 94.5309 23.4362 94.2509 22.9742C93.9709 22.4982 93.4529 21.9312 92.6969 21.2732C91.7449 20.4332 91.0799 19.6772 90.7019 19.0052C90.3239 18.3192 90.1349 17.5492 90.1349 16.6952C90.1349 15.5332 90.4289 14.6372 91.0169 14.0072C91.6049 13.3632 92.4589 13.0412 93.5789 13.0412C94.6849 13.0412 95.5179 13.3632 96.0779 14.0072C96.6519 14.6372 96.9389 15.5472 96.9389 16.7372V17.3462H94.7549V16.5902C94.7549 16.0862 94.6569 15.7222 94.4609 15.4982C94.2649 15.2602 93.9779 15.1412 93.5999 15.1412C92.8299 15.1412 92.4449 15.6102 92.4449 16.5482C92.4449 17.0802 92.5849 17.5772 92.8649 18.0392C93.1589 18.5012 93.6839 19.0612 94.4399 19.7192C95.4059 20.5592 96.0709 21.3222 96.4349 22.0082C96.7989 22.6942 96.9809 23.4992 96.9809 24.4232C96.9809 25.6272 96.6799 26.5512 96.0779 27.1952C95.4899 27.8392 94.6289 28.1612 93.4949 28.1612Z" fill="white"/>
<path fill-rule="evenodd" clip-rule="evenodd" d="M12.2426 31.6707L7.35938 11.9512L26.9349 17.573L12.2426 31.6707Z" stroke="white" stroke-width="0.75" stroke-miterlimit="10" stroke-linejoin="round"/>
<path fill-rule="evenodd" clip-rule="evenodd" d="M17.1474 14.8301L19.5886 24.6179L9.80078 21.8274L17.1474 14.8301Z" stroke="white" stroke-width="0.75" stroke-miterlimit="10" stroke-linejoin="round"/>
<path fill-rule="evenodd" clip-rule="evenodd" d="M14.7072 23.1732L13.4989 18.2784L18.3449 19.6688L14.7072 23.1732ZM12.29 13.3896L13.4984 18.2844L8.65234 16.8941L12.29 13.3896ZM21.9817 16.1799L23.1901 21.0746L18.344 19.6843L21.9817 16.1799ZM14.7078 23.1766L15.9161 28.0713L11.0701 26.681L14.7078 23.1766Z" stroke="white" stroke-width="0.75" stroke-miterlimit="10" stroke-linejoin="round"/>
</svg>
